<mxfile host="65bd71144e">
    <diagram id="wFE0QG_FPsp0jaGvCLVb" name="Page-1">
        <mxGraphModel dx="564" dy="519" grid="1" gridSize="10" guides="1" tooltips="1" connect="1" arrows="1" fold="1" page="1" pageScale="1" pageWidth="850" pageHeight="1100" math="0" shadow="0">
            <root>
                <mxCell id="0"/>
                <mxCell id="1" parent="0"/>
                <mxCell id="_X4DJkcGsbipTu7mcKhh-7" value="" style="rounded=1;whiteSpace=wrap;html=1;labelBackgroundColor=none;labelBorderColor=none;glass=0;shadow=1;sketch=0;opacity=80;" parent="1" vertex="1">
                    <mxGeometry x="175" y="70" width="120" height="220" as="geometry"/>
                </mxCell>
                <mxCell id="_X4DJkcGsbipTu7mcKhh-8" value="" style="rounded=1;whiteSpace=wrap;html=1;strokeColor=#B20000;fillColor=#e51400;fontColor=#ffffff;glass=0;shadow=1;sketch=0;opacity=80;" parent="1" vertex="1">
                    <mxGeometry x="305" y="70" width="120" height="220" as="geometry"/>
                </mxCell>
                <mxCell id="_X4DJkcGsbipTu7mcKhh-9" value="" style="rounded=1;whiteSpace=wrap;html=1;strokeColor=#6c8ebf;fillColor=#dae8fc;glass=0;shadow=1;sketch=0;opacity=80;" parent="1" vertex="1">
                    <mxGeometry x="175" y="330" width="120" height="220" as="geometry"/>
                </mxCell>
                <mxCell id="_X4DJkcGsbipTu7mcKhh-11" value="" style="rounded=1;whiteSpace=wrap;html=1;strokeColor=#005700;fillColor=#259944;glass=0;shadow=1;sketch=0;opacity=80;fontColor=#ffffff;" parent="1" vertex="1">
                    <mxGeometry x="305" y="330" width="120" height="220" as="geometry"/>
                </mxCell>
                <mxCell id="_X4DJkcGsbipTu7mcKhh-12" value="To Do" style="text;html=1;strokeColor=none;fillColor=none;align=center;verticalAlign=middle;whiteSpace=wrap;rounded=1;labelBackgroundColor=none;labelBorderColor=none;glass=0;shadow=1;sketch=0;opacity=80;" parent="1" vertex="1">
                    <mxGeometry x="175" y="40" width="120" height="30" as="geometry"/>
                </mxCell>
                <mxCell id="_X4DJkcGsbipTu7mcKhh-13" value="Overdue" style="text;html=1;strokeColor=none;fillColor=none;align=center;verticalAlign=middle;whiteSpace=wrap;rounded=1;labelBackgroundColor=none;labelBorderColor=none;glass=0;shadow=1;sketch=0;opacity=80;" parent="1" vertex="1">
                    <mxGeometry x="305" y="40" width="120" height="30" as="geometry"/>
                </mxCell>
                <mxCell id="_X4DJkcGsbipTu7mcKhh-14" value="In Progress" style="text;html=1;strokeColor=none;fillColor=none;align=center;verticalAlign=middle;whiteSpace=wrap;rounded=1;labelBackgroundColor=none;labelBorderColor=none;glass=0;shadow=1;sketch=0;opacity=80;" parent="1" vertex="1">
                    <mxGeometry x="175" y="300" width="120" height="30" as="geometry"/>
                </mxCell>
                <mxCell id="_X4DJkcGsbipTu7mcKhh-16" value="Done" style="text;html=1;strokeColor=none;fillColor=none;align=center;verticalAlign=middle;whiteSpace=wrap;rounded=1;labelBackgroundColor=none;labelBorderColor=none;glass=0;shadow=1;sketch=0;opacity=80;" parent="1" vertex="1">
                    <mxGeometry x="305" y="300" width="120" height="30" as="geometry"/>
                </mxCell>
                <mxCell id="_X4DJkcGsbipTu7mcKhh-17" value="" style="rounded=1;whiteSpace=wrap;html=1;strokeColor=#3700CC;fillColor=#9747FF;glass=0;shadow=1;sketch=0;opacity=80;fontColor=#ffffff;" parent="1" vertex="1">
                    <mxGeometry x="45" y="70" width="120" height="220" as="geometry"/>
                </mxCell>
                <mxCell id="_X4DJkcGsbipTu7mcKhh-18" value="To Do: Conditional" style="text;html=1;strokeColor=none;fillColor=none;align=center;verticalAlign=middle;whiteSpace=wrap;rounded=1;labelBackgroundColor=none;labelBorderColor=none;glass=0;shadow=1;sketch=0;opacity=80;" parent="1" vertex="1">
                    <mxGeometry x="45" y="40" width="120" height="30" as="geometry"/>
                </mxCell>
                <mxCell id="_X4DJkcGsbipTu7mcKhh-19" value="" style="rounded=1;whiteSpace=wrap;html=1;strokeColor=#d79b00;fillColor=#ffe6cc;glass=0;shadow=1;sketch=0;opacity=80;" parent="1" vertex="1">
                    <mxGeometry x="45" y="330" width="120" height="220" as="geometry"/>
                </mxCell>
                <mxCell id="_X4DJkcGsbipTu7mcKhh-20" value="On Hold" style="text;html=1;strokeColor=none;fillColor=none;align=center;verticalAlign=middle;whiteSpace=wrap;rounded=1;labelBackgroundColor=none;labelBorderColor=none;glass=0;shadow=1;sketch=0;opacity=80;" parent="1" vertex="1">
                    <mxGeometry x="45" y="300" width="120" height="30" as="geometry"/>
                </mxCell>
            </root>
        </mxGraphModel>
    </diagram>
</mxfile>